ffmpeg started on 2026-04-01 at 12:44:00
Report written to "D:\Convert\FFMetrics\reports\ssim_report-6.txt"
Log level: 32
Command line:
ffmpeg -hide_banner -nostdin -r 24000/1001 -i "F:\\Convert\\files\\[DC] Make Heroine ga Oosugiru - 07_Telegram_HEVC(291).mkv" -r 24000/1001 -i "F:\\Convert\\files\\[DC] Make Heroine ga Oosugiru - 07_Telegram.mp4" -lavfi "[0:v]settb=AVTB,setpts=PTS-STARTPTS,format=pix_fmts=yuv420p10le,fps=24000/1001,scale=1920:1080:flags=lanczos:param0=3:out_range=limited:out_color_matrix=bt709:out_chroma_loc=left,setsar=1/1,setdar=(1920/1080)*(1/1),colorspace=format=yuv420p10:range=tv:primaries=bt709:trc=bt709:space=bt709:fast=0[main];[1:v]settb=AVTB,setpts=PTS-STARTPTS,format=pix_fmts=yuv420p,fps=24000/1001,scale=1920:1080:flags=lanczos:param0=3:out_range=limited:out_color_matrix=bt709:out_chroma_loc=left,setsar=1/1,setdar=(1920/1080)*(1/1),colorspace=format=yuv420p:range=tv:primaries=bt709:trc=bt709:space=bt709:fast=0[ref];[main][ref]ssim=eof_action=endall:stats_file='D\\:/Convert/FFMetrics/logs/ssim_logfile-6.txt'" -f null -
Input #0, matroska,webm, from 'F:\Convert\files\[DC] Make Heroine ga Oosugiru - 07_Telegram_HEVC(291).mkv':
  Metadata:
    COMPATIBLE_BRANDS: isomiso2avc1mp41
    MAJOR_BRAND     : isom
    MINOR_VERSION   : 512
    ENCODER         : Lavf61.7.100
  Duration: 00:24:06.79, start: -0.021000, bitrate: 914 kb/s
  Stream #0:0: Video: hevc (Main 10), yuv420p10le(tv, bt709, progressive), 1920x1080 [SAR 1:1 DAR 16:9], 23.98 fps, 23.98 tbr, 1k tbn (default)
      Metadata:
        HANDLER_NAME    : VideoHandler
        VENDOR_ID       : [0][0][0][0]
        ENCODER         : Lavc61.19.100 libx265
        BPS             : 717061
        DURATION        : 00:24:06.569708333
        NUMBER_OF_FRAMES: 34683
        NUMBER_OF_BYTES : 129659933
        _STATISTICS_WRITING_APP: mkvpropedit v94.0 ('Initiate') 64-bit
        _STATISTICS_WRITING_DATE_UTC: 2026-03-31 06:35:23
        _STATISTICS_TAGS: BPS DURATION NUMBER_OF_FRAMES NUMBER_OF_BYTES
  Stream #0:1: Audio: aac (LC), 48000 Hz, stereo, fltp (default)
      Metadata:
        HANDLER_NAME    : SoundHandler
        VENDOR_ID       : [0][0][0][0]
        ENCODER         : Lavc61.19.100 aac
        BPS             : 193194
        DURATION        : 00:24:06.784000000
        NUMBER_OF_FRAMES: 67819
        NUMBER_OF_BYTES : 34938755
        _STATISTICS_WRITING_APP: mkvpropedit v94.0 ('Initiate') 64-bit
        _STATISTICS_WRITING_DATE_UTC: 2026-03-31 06:35:23
        _STATISTICS_TAGS: BPS DURATION NUMBER_OF_FRAMES NUMBER_OF_BYTES
Input #1, mov,mp4,m4a,3gp,3g2,mj2, from 'F:\Convert\files\[DC] Make Heroine ga Oosugiru - 07_Telegram.mp4':
  Metadata:
    major_brand     : isom
    minor_version   : 512
    compatible_brands: isomiso2avc1mp41
    encoder         : Lavf60.16.100
  Duration: 00:24:06.74, start: 0.000000, bitrate: 3764 kb/s
  Stream #1:0[0x1](und): Video: h264 (High) (avc1 / 0x31637661), yuv420p(tv, bt709, progressive), 1920x1080 [SAR 1:1 DAR 16:9], 3616 kb/s, 23.98 fps, 23.98 tbr, 24k tbn (default)
      Metadata:
        handler_name    : VideoHandler
        vendor_id       : [0][0][0][0]
        encoder         : Lavc60.31.102 h264_qsv
  Stream #1:1[0x2](und): Audio: aac (HE-AACv2) (mp4a / 0x6134706D), 48000 Hz, stereo, fltp, 144 kb/s (default)
      Metadata:
        handler_name    : SoundHandler
        vendor_id       : [0][0][0][0]
Stream mapping:
  Stream #0:0 (hevc) -> settb:default
  Stream #1:0 (h264) -> settb:default
  ssim:default -> Stream #0:0 (wrapped_avframe)
  Stream #0:1 -> #0:1 (aac (native) -> pcm_s16le (native))
Output #0, null, to 'pipe:':
  Metadata:
    COMPATIBLE_BRANDS: isomiso2avc1mp41
    MAJOR_BRAND     : isom
    MINOR_VERSION   : 512
    encoder         : Lavf61.7.100
  Stream #0:0: Video: wrapped_avframe, yuv420p10le(tv, bt709, progressive), 1920x1080 [SAR 1:1 DAR 16:9], q=2-31, 200 kb/s, 23.98 fps, 23.98 tbn
      Metadata:
        encoder         : Lavc61.19.100 wrapped_avframe
  Stream #0:1: Audio: pcm_s16le, 48000 Hz, stereo, s16, 1536 kb/s (default)
      Metadata:
        HANDLER_NAME    : SoundHandler
        VENDOR_ID       : [0][0][0][0]
        _STATISTICS_TAGS: BPS DURATION NUMBER_OF_FRAMES NUMBER_OF_BYTES
        BPS             : 193194
        DURATION        : 00:24:06.784000000
        NUMBER_OF_FRAMES: 67819
        NUMBER_OF_BYTES : 34938755
        _STATISTICS_WRITING_APP: mkvpropedit v94.0 ('Initiate') 64-bit
        _STATISTICS_WRITING_DATE_UTC: 2026-03-31 06:35:23
        encoder         : Lavc61.19.100 pcm_s16le
frame=  137 fps=0.0 q=-0.0 size=N/A time=00:00:05.71 bitrate=N/A speed=11.1x    frame=  310 fps=302 q=-0.0 size=N/A time=00:00:12.92 bitrate=N/A speed=12.6x    frame=  505 fps=326 q=-0.0 size=N/A time=00:00:21.06 bitrate=N/A speed=13.6x    frame=  695 fps=338 q=-0.0 size=N/A time=00:00:28.98 bitrate=N/A speed=14.1x    frame=  885 fps=343 q=-0.0 size=N/A time=00:00:36.91 bitrate=N/A speed=14.3x    frame= 1020 fps=330 q=-0.0 size=N/A time=00:00:42.54 bitrate=N/A speed=13.8x    frame= 1181 fps=328 q=-0.0 size=N/A time=00:00:49.25 bitrate=N/A speed=13.7x    frame= 1350 fps=327 q=-0.0 size=N/A time=00:00:56.30 bitrate=N/A speed=13.6x    frame= 1508 fps=325 q=-0.0 size=N/A time=00:01:02.89 bitrate=N/A speed=13.6x    frame= 1646 fps=319 q=-0.0 size=N/A time=00:01:08.65 bitrate=N/A speed=13.3x    frame= 1813 fps=320 q=-0.0 size=N/A time=00:01:15.61 bitrate=N/A speed=13.4x    frame= 1980 fps=320 q=-0.0 size=N/A time=00:01:22.58 bitrate=N/A speed=13.3x    frame= 2097 fps=313 q=-0.0 size=N/A time=00:01:27.46 bitrate=N/A speed=13.1x    frame= 2247 fps=312 q=-0.0 size=N/A time=00:01:33.71 bitrate=N/A speed=  13x    frame= 2403 fps=311 q=-0.0 size=N/A time=00:01:40.22 bitrate=N/A speed=  13x    frame= 2534 fps=307 q=-0.0 size=N/A time=00:01:45.68 bitrate=N/A speed=12.8x    frame= 2686 fps=307 q=-0.0 size=N/A time=00:01:52.02 bitrate=N/A speed=12.8x    frame= 2867 fps=309 q=-0.0 size=N/A time=00:01:59.57 bitrate=N/A speed=12.9x    frame= 3041 fps=310 q=-0.0 size=N/A time=00:02:06.83 bitrate=N/A speed=12.9x    frame= 3230 fps=313 q=-0.0 size=N/A time=00:02:14.71 bitrate=N/A speed=13.1x    frame= 3420 fps=316 q=-0.0 size=N/A time=00:02:22.64 bitrate=N/A speed=13.2x    frame= 3603 fps=318 q=-0.0 size=N/A time=00:02:30.27 bitrate=N/A speed=13.2x    frame= 3783 fps=319 q=-0.0 size=N/A time=00:02:37.78 bitrate=N/A speed=13.3x    frame= 3980 fps=321 q=-0.0 size=N/A time=00:02:45.99 bitrate=N/A speed=13.4x    frame= 4174 fps=323 q=-0.0 size=N/A time=00:02:54.09 bitrate=N/A speed=13.5x    frame= 4356 fps=324 q=-0.0 size=N/A time=00:03:01.68 bitrate=N/A speed=13.5x    frame= 4533 fps=325 q=-0.0 size=N/A time=00:03:09.06 bitrate=N/A speed=13.6x    frame= 4720 fps=327 q=-0.0 size=N/A time=00:03:16.86 bitrate=N/A speed=13.6x    frame= 4897 fps=327 q=-0.0 size=N/A time=00:03:24.24 bitrate=N/A speed=13.7x    frame= 5086 fps=328 q=-0.0 size=N/A time=00:03:32.12 bitrate=N/A speed=13.7x    frame= 5269 fps=329 q=-0.0 size=N/A time=00:03:39.76 bitrate=N/A speed=13.7x    frame= 5459 fps=331 q=-0.0 size=N/A time=00:03:47.68 bitrate=N/A speed=13.8x    frame= 5644 fps=331 q=-0.0 size=N/A time=00:03:55.40 bitrate=N/A speed=13.8x    frame= 5825 fps=332 q=-0.0 size=N/A time=00:04:02.95 bitrate=N/A speed=13.9x    frame= 6020 fps=333 q=-0.0 size=N/A time=00:04:11.08 bitrate=N/A speed=13.9x    frame= 6206 fps=334 q=-0.0 size=N/A time=00:04:18.84 bitrate=N/A speed=13.9x    frame= 6386 fps=334 q=-0.0 size=N/A time=00:04:26.34 bitrate=N/A speed=  14x    frame= 6564 fps=335 q=-0.0 size=N/A time=00:04:33.77 bitrate=N/A speed=  14x    frame= 6747 fps=335 q=-0.0 size=N/A time=00:04:41.40 bitrate=N/A speed=  14x    frame= 6921 fps=335 q=-0.0 size=N/A time=00:04:48.66 bitrate=N/A speed=  14x    frame= 7098 fps=336 q=-0.0 size=N/A time=00:04:56.04 bitrate=N/A speed=  14x    frame= 7276 fps=336 q=-0.0 size=N/A time=00:05:03.46 bitrate=N/A speed=  14x    frame= 7456 fps=336 q=-0.0 size=N/A time=00:05:10.97 bitrate=N/A speed=  14x    frame= 7631 fps=336 q=-0.0 size=N/A time=00:05:18.27 bitrate=N/A speed=  14x    frame= 7811 fps=336 q=-0.0 size=N/A time=00:05:25.78 bitrate=N/A speed=  14x    frame= 7991 fps=337 q=-0.0 size=N/A time=00:05:33.29 bitrate=N/A speed=  14x    frame= 8175 fps=337 q=-0.0 size=N/A time=00:05:40.96 bitrate=N/A speed=14.1x    frame= 8359 fps=338 q=-0.0 size=N/A time=00:05:48.63 bitrate=N/A speed=14.1x    frame= 8543 fps=338 q=-0.0 size=N/A time=00:05:56.31 bitrate=N/A speed=14.1x    frame= 8723 fps=338 q=-0.0 size=N/A time=00:06:03.82 bitrate=N/A speed=14.1x    frame= 8908 fps=339 q=-0.0 size=N/A time=00:06:11.53 bitrate=N/A speed=14.1x    frame= 9088 fps=339 q=-0.0 size=N/A time=00:06:19.04 bitrate=N/A speed=14.1x    frame= 9279 fps=339 q=-0.0 size=N/A time=00:06:27.01 bitrate=N/A speed=14.2x    frame= 9464 fps=340 q=-0.0 size=N/A time=00:06:34.72 bitrate=N/A speed=14.2x    frame= 9655 fps=340 q=-0.0 size=N/A time=00:06:42.69 bitrate=N/A speed=14.2x    frame= 9838 fps=340 q=-0.0 size=N/A time=00:06:50.32 bitrate=N/A speed=14.2x    frame=10017 fps=341 q=-0.0 size=N/A time=00:06:57.79 bitrate=N/A speed=14.2x    frame=10206 fps=341 q=-0.0 size=N/A time=00:07:05.67 bitrate=N/A speed=14.2x    frame=10389 fps=341 q=-0.0 size=N/A time=00:07:13.30 bitrate=N/A speed=14.2x    frame=10574 fps=341 q=-0.0 size=N/A time=00:07:21.02 bitrate=N/A speed=14.2x    frame=10763 fps=342 q=-0.0 size=N/A time=00:07:28.90 bitrate=N/A speed=14.3x    frame=10945 fps=342 q=-0.0 size=N/A time=00:07:36.49 bitrate=N/A speed=14.3x    frame=11126 fps=342 q=-0.0 size=N/A time=00:07:44.04 bitrate=N/A speed=14.3x    frame=11309 fps=342 q=-0.0 size=N/A time=00:07:51.67 bitrate=N/A speed=14.3x    frame=11490 fps=343 q=-0.0 size=N/A time=00:07:59.22 bitrate=N/A speed=14.3x    frame=11671 fps=343 q=-0.0 size=N/A time=00:08:06.77 bitrate=N/A speed=14.3x    frame=11869 fps=343 q=-0.0 size=N/A time=00:08:15.03 bitrate=N/A speed=14.3x    frame=12055 fps=344 q=-0.0 size=N/A time=00:08:22.79 bitrate=N/A speed=14.3x    frame=12235 fps=344 q=-0.0 size=N/A time=00:08:30.30 bitrate=N/A speed=14.3x    frame=12425 fps=344 q=-0.0 size=N/A time=00:08:38.22 bitrate=N/A speed=14.3x    frame=12607 fps=344 q=-0.0 size=N/A time=00:08:45.81 bitrate=N/A speed=14.4x    frame=12793 fps=344 q=-0.0 size=N/A time=00:08:53.57 bitrate=N/A speed=14.4x    frame=12975 fps=345 q=-0.0 size=N/A time=00:09:01.16 bitrate=N/A speed=14.4x    frame=13165 fps=345 q=-0.0 size=N/A time=00:09:09.09 bitrate=N/A speed=14.4x    frame=13314 fps=344 q=-0.0 size=N/A time=00:09:15.30 bitrate=N/A speed=14.3x    frame=13489 fps=344 q=-0.0 size=N/A time=00:09:22.60 bitrate=N/A speed=14.3x    frame=13629 fps=343 q=-0.0 size=N/A time=00:09:28.44 bitrate=N/A speed=14.3x    frame=13811 fps=343 q=-0.0 size=N/A time=00:09:36.03 bitrate=N/A speed=14.3x    frame=13988 fps=343 q=-0.0 size=N/A time=00:09:43.41 bitrate=N/A speed=14.3x    frame=14155 fps=343 q=-0.0 size=N/A time=00:09:50.38 bitrate=N/A speed=14.3x    frame=14312 fps=342 q=-0.0 size=N/A time=00:09:56.92 bitrate=N/A speed=14.3x    frame=14485 fps=342 q=-0.0 size=N/A time=00:10:04.14 bitrate=N/A speed=14.3x    frame=14663 fps=342 q=-0.0 size=N/A time=00:10:11.56 bitrate=N/A speed=14.3x    frame=14847 fps=343 q=-0.0 size=N/A time=00:10:19.24 bitrate=N/A speed=14.3x    frame=15023 fps=343 q=-0.0 size=N/A time=00:10:26.58 bitrate=N/A speed=14.3x    frame=15194 fps=342 q=-0.0 size=N/A time=00:10:33.71 bitrate=N/A speed=14.3x    frame=15373 fps=342 q=-0.0 size=N/A time=00:10:41.18 bitrate=N/A speed=14.3x    frame=15559 fps=343 q=-0.0 size=N/A time=00:10:48.93 bitrate=N/A speed=14.3x    frame=15746 fps=343 q=-0.0 size=N/A time=00:10:56.73 bitrate=N/A speed=14.3x    frame=15930 fps=343 q=-0.0 size=N/A time=00:11:04.41 bitrate=N/A speed=14.3x    frame=16116 fps=343 q=-0.0 size=N/A time=00:11:12.17 bitrate=N/A speed=14.3x    frame=16306 fps=343 q=-0.0 size=N/A time=00:11:20.09 bitrate=N/A speed=14.3x    frame=16486 fps=344 q=-0.0 size=N/A time=00:11:27.60 bitrate=N/A speed=14.3x    frame=16669 fps=344 q=-0.0 size=N/A time=00:11:35.23 bitrate=N/A speed=14.3x    frame=16858 fps=344 q=-0.0 size=N/A time=00:11:43.11 bitrate=N/A speed=14.3x    frame=17038 fps=344 q=-0.0 size=N/A time=00:11:50.62 bitrate=N/A speed=14.3x    frame=17193 fps=344 q=-0.0 size=N/A time=00:11:57.09 bitrate=N/A speed=14.3x    frame=17358 fps=343 q=-0.0 size=N/A time=00:12:03.97 bitrate=N/A speed=14.3x    frame=17498 fps=343 q=-0.0 size=N/A time=00:12:09.81 bitrate=N/A speed=14.3x    frame=17673 fps=343 q=-0.0 size=N/A time=00:12:17.11 bitrate=N/A speed=14.3x    frame=17849 fps=343 q=-0.0 size=N/A time=00:12:24.45 bitrate=N/A speed=14.3x    frame=18009 fps=342 q=-0.0 size=N/A time=00:12:31.12 bitrate=N/A speed=14.3x    frame=18176 fps=342 q=-0.0 size=N/A time=00:12:38.09 bitrate=N/A speed=14.3x    frame=18334 fps=342 q=-0.0 size=N/A time=00:12:44.68 bitrate=N/A speed=14.3x    frame=18504 fps=342 q=-0.0 size=N/A time=00:12:51.77 bitrate=N/A speed=14.2x    frame=18673 fps=341 q=-0.0 size=N/A time=00:12:58.81 bitrate=N/A speed=14.2x    frame=18856 fps=342 q=-0.0 size=N/A time=00:13:06.45 bitrate=N/A speed=14.2x    frame=19029 fps=342 q=-0.0 size=N/A time=00:13:13.66 bitrate=N/A speed=14.2x    frame=19200 fps=341 q=-0.0 size=N/A time=00:13:20.80 bitrate=N/A speed=14.2x    frame=19352 fps=341 q=-0.0 size=N/A time=00:13:27.13 bitrate=N/A speed=14.2x    frame=19550 fps=341 q=-0.0 size=N/A time=00:13:35.39 bitrate=N/A speed=14.2x    frame=19738 fps=342 q=-0.0 size=N/A time=00:13:43.23 bitrate=N/A speed=14.2x    frame=19934 fps=342 q=-0.0 size=N/A time=00:13:51.41 bitrate=N/A speed=14.3x    frame=20123 fps=342 q=-0.0 size=N/A time=00:13:59.29 bitrate=N/A speed=14.3x    frame=20309 fps=342 q=-0.0 size=N/A time=00:14:07.05 bitrate=N/A speed=14.3x    frame=20493 fps=342 q=-0.0 size=N/A time=00:14:14.72 bitrate=N/A speed=14.3x    frame=20674 fps=342 q=-0.0 size=N/A time=00:14:22.27 bitrate=N/A speed=14.3x    frame=20868 fps=343 q=-0.0 size=N/A time=00:14:30.36 bitrate=N/A speed=14.3x    frame=21055 fps=343 q=-0.0 size=N/A time=00:14:38.16 bitrate=N/A speed=14.3x    frame=21240 fps=343 q=-0.0 size=N/A time=00:14:45.88 bitrate=N/A speed=14.3x    frame=21429 fps=343 q=-0.0 size=N/A time=00:14:53.76 bitrate=N/A speed=14.3x    frame=21618 fps=343 q=-0.0 size=N/A time=00:15:01.65 bitrate=N/A speed=14.3x    frame=21800 fps=344 q=-0.0 size=N/A time=00:15:09.24 bitrate=N/A speed=14.3x    frame=21993 fps=344 q=-0.0 size=N/A time=00:15:17.29 bitrate=N/A speed=14.3x    frame=22176 fps=344 q=-0.0 size=N/A time=00:15:24.92 bitrate=N/A speed=14.3x    frame=22365 fps=344 q=-0.0 size=N/A time=00:15:32.80 bitrate=N/A speed=14.3x    frame=22558 fps=344 q=-0.0 size=N/A time=00:15:40.85 bitrate=N/A speed=14.4x    frame=22746 fps=344 q=-0.0 size=N/A time=00:15:48.69 bitrate=N/A speed=14.4x    frame=22926 fps=344 q=-0.0 size=N/A time=00:15:56.20 bitrate=N/A speed=14.4x    frame=23126 fps=345 q=-0.0 size=N/A time=00:16:04.54 bitrate=N/A speed=14.4x    frame=23316 fps=345 q=-0.0 size=N/A time=00:16:12.47 bitrate=N/A speed=14.4x    frame=23502 fps=345 q=-0.0 size=N/A time=00:16:20.22 bitrate=N/A speed=14.4x    frame=23695 fps=345 q=-0.0 size=N/A time=00:16:28.27 bitrate=N/A speed=14.4x    frame=23888 fps=346 q=-0.0 size=N/A time=00:16:36.32 bitrate=N/A speed=14.4x    frame=24076 fps=346 q=-0.0 size=N/A time=00:16:44.16 bitrate=N/A speed=14.4x    frame=24266 fps=346 q=-0.0 size=N/A time=00:16:52.09 bitrate=N/A speed=14.4x    frame=24454 fps=346 q=-0.0 size=N/A time=00:16:59.93 bitrate=N/A speed=14.4x    frame=24630 fps=346 q=-0.0 size=N/A time=00:17:07.27 bitrate=N/A speed=14.4x    frame=24793 fps=346 q=-0.0 size=N/A time=00:17:14.07 bitrate=N/A speed=14.4x    frame=24963 fps=346 q=-0.0 size=N/A time=00:17:21.16 bitrate=N/A speed=14.4x    frame=25139 fps=346 q=-0.0 size=N/A time=00:17:28.50 bitrate=N/A speed=14.4x    frame=25337 fps=346 q=-0.0 size=N/A time=00:17:36.76 bitrate=N/A speed=14.4x    frame=25522 fps=346 q=-0.0 size=N/A time=00:17:44.48 bitrate=N/A speed=14.4x    frame=25708 fps=346 q=-0.0 size=N/A time=00:17:52.23 bitrate=N/A speed=14.4x    frame=25886 fps=346 q=-0.0 size=N/A time=00:17:59.66 bitrate=N/A speed=14.4x    frame=26052 fps=346 q=-0.0 size=N/A time=00:18:06.58 bitrate=N/A speed=14.4x    frame=26218 fps=346 q=-0.0 size=N/A time=00:18:13.50 bitrate=N/A speed=14.4x    frame=26400 fps=346 q=-0.0 size=N/A time=00:18:21.10 bitrate=N/A speed=14.4x    frame=26569 fps=346 q=-0.0 size=N/A time=00:18:28.14 bitrate=N/A speed=14.4x    frame=26740 fps=346 q=-0.0 size=N/A time=00:18:35.28 bitrate=N/A speed=14.4x    frame=26915 fps=345 q=-0.0 size=N/A time=00:18:42.57 bitrate=N/A speed=14.4x    frame=27092 fps=345 q=-0.0 size=N/A time=00:18:49.96 bitrate=N/A speed=14.4x    frame=27279 fps=346 q=-0.0 size=N/A time=00:18:57.76 bitrate=N/A speed=14.4x    frame=27459 fps=346 q=-0.0 size=N/A time=00:19:05.26 bitrate=N/A speed=14.4x    frame=27641 fps=346 q=-0.0 size=N/A time=00:19:12.86 bitrate=N/A speed=14.4x    frame=27832 fps=346 q=-0.0 size=N/A time=00:19:20.82 bitrate=N/A speed=14.4x    frame=28016 fps=346 q=-0.0 size=N/A time=00:19:28.50 bitrate=N/A speed=14.4x    frame=28191 fps=346 q=-0.0 size=N/A time=00:19:35.79 bitrate=N/A speed=14.4x    frame=28379 fps=346 q=-0.0 size=N/A time=00:19:43.64 bitrate=N/A speed=14.4x    frame=28563 fps=346 q=-0.0 size=N/A time=00:19:51.31 bitrate=N/A speed=14.4x    frame=28736 fps=346 q=-0.0 size=N/A time=00:19:58.53 bitrate=N/A speed=14.4x    frame=28912 fps=346 q=-0.0 size=N/A time=00:20:05.87 bitrate=N/A speed=14.4x    frame=29084 fps=346 q=-0.0 size=N/A time=00:20:13.04 bitrate=N/A speed=14.4x    frame=29252 fps=346 q=-0.0 size=N/A time=00:20:20.05 bitrate=N/A speed=14.4x    frame=29436 fps=346 q=-0.0 size=N/A time=00:20:27.72 bitrate=N/A speed=14.4x    frame=29607 fps=346 q=-0.0 size=N/A time=00:20:34.85 bitrate=N/A speed=14.4x    frame=29787 fps=346 q=-0.0 size=N/A time=00:20:42.36 bitrate=N/A speed=14.4x    frame=29965 fps=346 q=-0.0 size=N/A time=00:20:49.79 bitrate=N/A speed=14.4x    frame=30130 fps=346 q=-0.0 size=N/A time=00:20:56.67 bitrate=N/A speed=14.4x    frame=30313 fps=346 q=-0.0 size=N/A time=00:21:04.30 bitrate=N/A speed=14.4x    frame=30503 fps=346 q=-0.0 size=N/A time=00:21:12.22 bitrate=N/A speed=14.4x    frame=30684 fps=346 q=-0.0 size=N/A time=00:21:19.77 bitrate=N/A speed=14.4x    frame=30872 fps=346 q=-0.0 size=N/A time=00:21:27.61 bitrate=N/A speed=14.4x    frame=31059 fps=346 q=-0.0 size=N/A time=00:21:35.41 bitrate=N/A speed=14.4x    frame=31244 fps=346 q=-0.0 size=N/A time=00:21:43.13 bitrate=N/A speed=14.4x    frame=31420 fps=346 q=-0.0 size=N/A time=00:21:50.47 bitrate=N/A speed=14.4x    frame=31606 fps=346 q=-0.0 size=N/A time=00:21:58.23 bitrate=N/A speed=14.4x    frame=31785 fps=346 q=-0.0 size=N/A time=00:22:05.69 bitrate=N/A speed=14.4x    frame=31962 fps=346 q=-0.0 size=N/A time=00:22:13.08 bitrate=N/A speed=14.4x    frame=32144 fps=346 q=-0.0 size=N/A time=00:22:20.67 bitrate=N/A speed=14.4x    frame=32321 fps=346 q=-0.0 size=N/A time=00:22:28.05 bitrate=N/A speed=14.4x    frame=32510 fps=346 q=-0.0 size=N/A time=00:22:35.93 bitrate=N/A speed=14.4x    frame=32673 fps=346 q=-0.0 size=N/A time=00:22:42.73 bitrate=N/A speed=14.4x    frame=32838 fps=346 q=-0.0 size=N/A time=00:22:49.61 bitrate=N/A speed=14.4x    frame=33011 fps=346 q=-0.0 size=N/A time=00:22:56.83 bitrate=N/A speed=14.4x    frame=33180 fps=346 q=-0.0 size=N/A time=00:23:03.88 bitrate=N/A speed=14.4x    frame=33353 fps=346 q=-0.0 size=N/A time=00:23:11.09 bitrate=N/A speed=14.4x    frame=33524 fps=346 q=-0.0 size=N/A time=00:23:18.23 bitrate=N/A speed=14.4x    frame=33666 fps=345 q=-0.0 size=N/A time=00:23:24.15 bitrate=N/A speed=14.4x    frame=33805 fps=345 q=-0.0 size=N/A time=00:23:29.95 bitrate=N/A speed=14.4x    frame=33941 fps=344 q=-0.0 size=N/A time=00:23:35.62 bitrate=N/A speed=14.4x    frame=34108 fps=344 q=-0.0 size=N/A time=00:23:42.58 bitrate=N/A speed=14.4x    frame=34270 fps=344 q=-0.0 size=N/A time=00:23:49.34 bitrate=N/A speed=14.4x    frame=34401 fps=344 q=-0.0 size=N/A time=00:23:54.80 bitrate=N/A speed=14.3x    frame=34565 fps=344 q=-0.0 size=N/A time=00:24:01.64 bitrate=N/A speed=14.3x    [Parsed_ssim_16 @ 000002909e195080] SSIM Y:0.993804 (22.078924) U:0.993992 (22.212985) V:0.993597 (21.936345) All:0.993801 (22.076769)
[out#0/null @ 000002909146dec0] video:14903KiB audio:271276KiB subtitle:0KiB other streams:0KiB global headers:0KiB muxing overhead: unknown
frame=34683 fps=344 q=-0.0 Lsize=N/A time=00:24:06.57 bitrate=N/A speed=14.3x    
